<?xml version="1.0" standalone="no"?>
<!DOCTYPE svg PUBLIC "-//W3C//DTD SVG 20010904//EN"
 "http://www.w3.org/TR/2001/REC-SVG-20010904/DTD/svg10.dtd">
<svg version="1.0" xmlns="http://www.w3.org/2000/svg"
 width="460.000000pt" height="461.000000pt" viewBox="0 0 460.000000 461.000000"
 preserveAspectRatio="xMidYMid meet">

<g transform="translate(0.000000,461.000000) scale(0.100000,-0.100000)"
fill="#000000" stroke="none">
<path d="M2124 4479 c-666 -51 -1284 -416 -1657 -979 -85 -128 -203 -368 -250
-510 -152 -455 -152 -936 -1 -1390 229 -689 788 -1225 1482 -1421 197 -55 309
-71 540 -76 289 -7 476 17 717 94 580 184 1039 579 1309 1123 112 225 185 469
216 720 13 108 13 391 0 500 -74 612 -389 1154 -882 1518 -335 247 -717 389
-1142 422 -141 11 -182 11 -332 -1z m495 -54 c449 -70 854 -272 1180 -589 361
-353 576 -783 642 -1286 16 -122 16 -398 0 -520 -61 -472 -268 -901 -595
-1239 -336 -346 -764 -565 -1246 -637 -155 -24 -443 -24 -604 0 -514 75 -989
333 -1323 721 -266 308 -431 654 -504 1060 -33 178 -33 526 0 708 112 633 465
1153 1012 1492 269 167 610 278 949 309 90 8 388 -4 489 -19z"/>
<path d="M2273 4313 c-23 -2 -47 -11 -53 -19 -7 -7 -28 -14 -47 -14 -60 0
-123 -38 -123 -74 0 -15 52 -4 70 14 13 13 33 20 60 20 53 0 90 -34 90 -82 l0
-33 -15 30 c-21 41 -43 55 -83 55 -68 0 -121 -92 -90 -157 19 -40 60 -58 95
-41 52 26 46 100 -10 106 -29 4 -37 26 -12 36 35 13 66 -28 80 -106 6 -33 11
-38 34 -38 43 0 49 11 56 100 7 83 2 112 -27 152 -10 14 -9 21 6 37 11 12 17
20 15 19 -2 -1 -23 -3 -46 -5z m-103 -248 c0 -8 -9 -15 -20 -15 -11 0 -20 7
-20 15 0 8 9 15 20 15 11 0 20 -7 20 -15z"/>
<path d="M2431 4253 c-17 -16 -33 -40 -36 -54 -6 -23 -3 -27 20 -33 15 -4 28
-6 29 -4 18 41 36 64 52 66 38 6 46 -18 34 -109 -14 -115 -14 -116 18 -122 15
-3 28 -5 29 -4 1 1 7 49 13 105 14 121 8 146 -45 168 -51 21 -81 17 -114 -13z"/>
<path d="M1880 4243 c-28 -11 -50 -36 -50 -60 0 -33 36 -66 66 -60 20 4 25 -1
34 -32 14 -50 13 -68 -6 -75 -28 -11 -33 -7 -74 72 -22 42 -49 88 -59 102
l-19 24 -20 -24 -19 -24 47 -71 c25 -40 52 -86 59 -103 8 -18 19 -32 25 -32
22 1 137 28 143 34 3 3 -4 53 -17 111 -19 85 -28 110 -48 126 -25 19 -36 22
-62 12z m28 -60 c-4 -22 -22 -20 -26 1 -2 10 3 16 13 16 10 0 15 -7 13 -17z"/>
<path d="M2712 4214 c-22 -15 -52 -63 -52 -83 0 -12 55 -25 94 -22 58 3 69 -6
63 -56 -6 -58 -14 -65 -61 -51 -37 12 -38 13 -32 50 5 29 3 38 -8 38 -8 0 -21
2 -29 5 -10 4 -18 -10 -30 -51 -9 -32 -16 -58 -14 -59 16 -11 202 -54 207 -48
13 15 42 142 36 160 -8 25 -42 44 -101 59 -45 10 -48 12 -24 19 18 4 39 0 67
-14 43 -22 82 -27 82 -12 0 5 2 16 5 23 4 10 -14 20 -63 36 -81 26 -110 27
-140 6z"/>
<path d="M1534 4136 c-42 -19 -74 -62 -74 -101 0 -41 5 -45 41 -32 22 9 27 16
23 30 -3 10 2 29 11 43 13 20 23 25 48 22 26 -2 35 -10 51 -43 10 -22 14 -41
9 -42 -30 -10 -46 -33 -46 -63 0 -36 23 -60 59 -60 32 0 74 37 74 66 0 29 -47
152 -68 177 -18 21 -83 22 -128 3z m139 -173 c9 -9 -13 -34 -24 -27 -14 8 -11
34 4 34 8 0 17 -3 20 -7z"/>
<path d="M3000 4128 c-24 -13 -59 -63 -50 -72 3 -2 17 -7 32 -11 21 -5 27 -3
33 14 11 35 66 39 79 5 3 -8 -13 -56 -35 -107 -37 -85 -38 -93 -22 -104 9 -7
22 -13 29 -13 6 0 31 46 54 102 33 79 40 108 34 127 -19 52 -104 85 -154 59z"/>
<path d="M1303 4022 c-93 -49 -110 -81 -82 -161 14 -40 34 -39 73 3 17 18 41
38 53 45 19 10 24 7 42 -23 29 -47 26 -61 -7 -36 -23 17 -33 19 -55 11 -40
-15 -54 -53 -33 -86 39 -59 176 -3 176 72 0 23 -54 128 -71 138 -4 3 -25 -5
-46 -18 -71 -44 -83 -49 -83 -33 0 7 21 24 48 36 68 32 74 38 59 61 -14 23
-10 23 -74 -9z m49 -224 c-15 -15 -26 -4 -18 18 5 13 9 15 18 6 9 -9 9 -15 0
-24z"/>
<path d="M3245 4002 c-17 -11 -38 -31 -48 -45 -16 -24 -15 -26 8 -41 13 -9 35
-16 47 -16 28 0 68 -26 68 -43 0 -7 -13 -28 -30 -47 l-30 -35 11 32 c13 40 -1
70 -37 79 -70 18 -102 -56 -46 -108 57 -53 106 -62 139 -25 25 27 73 103 73
116 0 8 -74 57 -110 72 -13 6 -12 8 3 14 12 5 29 -2 55 -22 53 -42 70 -46 83
-22 6 11 9 22 7 23 -2 1 -28 18 -58 38 -71 48 -97 53 -135 30z m-12 -167 c1
-5 -6 -11 -15 -13 -11 -2 -18 3 -18 13 0 17 30 18 33 0z"/>
<path d="M1040 3846 l-23 -26 26 -67 c15 -37 25 -68 23 -70 -2 -2 -18 14 -36
37 -40 50 -86 56 -119 14 -27 -34 -27 -58 0 -85 20 -20 41 -21 80 -5 11 5 29
-9 62 -49 l46 -56 32 29 33 29 -42 103 c-23 57 -40 105 -38 108 2 2 35 -33 73
-77 37 -45 71 -81 74 -81 3 0 14 9 24 20 17 19 16 22 -57 107 -85 101 -115
114 -158 69z m-70 -149 c0 -8 -3 -17 -7 -20 -9 -9 -34 13 -27 24 8 14 34 11
34 -4z"/>
<path d="M3471 3836 c-6 -7 -9 -21 -5 -30 4 -11 -8 -31 -35 -62 -50 -54 -53
-94 -9 -127 56 -42 115 12 83 76 -15 29 -14 32 12 61 16 17 29 32 30 34 5 12
64 -33 69 -54 5 -21 -1 -34 -37 -72 -25 -26 -55 -59 -68 -74 l-24 -28 22 -24
c12 -13 39 -26 60 -30 34 -5 38 -9 38 -36 0 -41 28 -70 70 -70 44 0 63 35 45
83 -12 30 -10 33 41 85 l52 53 -25 19 -25 19 -53 -52 c-47 -46 -56 -51 -90
-48 -20 1 -39 5 -41 7 -3 3 16 26 41 52 25 26 49 57 52 68 16 53 -43 127 -118
149 -61 18 -71 19 -85 1z m-1 -169 c0 -8 -3 -17 -7 -20 -9 -9 -34 13 -27 24 8
14 34 11 34 -4z m216 -198 c10 -17 -13 -36 -27 -22 -12 12 -4 33 11 33 5 0 12
-5 16 -11z"/>
<path d="M2144 3790 c-248 -26 -487 -113 -694 -251 -114 -77 -280 -235 -365
-348 -355 -473 -400 -1119 -114 -1637 146 -263 396 -501 664 -629 489 -235
1045 -196 1506 107 121 80 322 279 403 400 349 526 349 1180 0 1706 -81 121
-282 320 -403 400 -305 200 -653 288 -997 252z m175 -321 c-8 -16 -5 -26 15
-50 24 -28 26 -36 20 -97 -6 -59 -4 -70 14 -92 20 -24 21 -24 22 -4 0 11 9 29
20 39 11 10 20 23 19 29 -4 33 3 39 16 16 12 -21 12 -28 -1 -47 -19 -30 -18
-34 18 -93 28 -46 33 -49 40 -31 10 28 28 27 28 -1 0 -13 8 -36 17 -53 25 -46
22 -128 -5 -165 -12 -16 -19 -30 -14 -30 4 0 3 -36 -4 -80 -11 -83 -29 -115
-70 -130 -24 -10 -38 -58 -22 -78 8 -9 7 -20 -1 -39 -11 -23 -10 -25 3 -13 9
7 16 8 16 3 0 -31 116 -43 175 -19 37 16 75 68 75 104 0 17 -6 22 -24 22 -36
0 -66 44 -66 96 0 34 7 51 31 79 51 58 87 68 210 61 103 -6 107 -5 132 18 26
24 27 24 27 4 0 -20 3 -21 98 -14 112 7 216 29 252 54 14 9 28 17 33 17 20 0
77 59 88 90 20 54 32 42 27 -28 -8 -125 -80 -220 -200 -263 -26 -10 -45 -20
-43 -24 2 -3 -4 -24 -14 -46 -33 -72 -113 -124 -194 -124 -21 0 -32 -8 -45
-30 -9 -17 -24 -32 -33 -35 -12 -4 -4 -16 31 -53 51 -53 71 -104 69 -178 -2
-49 -2 -48 -9 14 -9 81 -17 88 -15 12 2 -49 0 -60 -15 -65 -11 -4 -16 -14 -14
-30 1 -14 -2 -25 -7 -25 -6 0 -7 -4 -4 -10 11 -18 26 -10 40 23 8 17 14 26 15
19 1 -38 -92 -142 -156 -175 -48 -24 -168 -47 -249 -47 l-75 0 20 -40 c25 -49
26 -129 3 -178 -10 -21 -43 -63 -75 -95 -32 -32 -58 -59 -58 -62 0 -2 5 -7 12
-11 7 -5 8 -2 3 7 -5 9 -1 8 10 -3 21 -20 31 -102 17 -138 -8 -19 -9 -11 -5
35 3 33 2 56 -3 52 -4 -4 -9 -18 -10 -30 -1 -12 -5 -40 -9 -61 -6 -32 -5 -37
6 -31 8 5 5 -2 -6 -14 -22 -25 -62 -51 -51 -32 5 7 -3 11 -21 11 -27 -1 -27
-1 -9 -15 11 -8 16 -15 12 -15 -5 0 8 -18 28 -40 37 -41 39 -47 37 -115 -2
-30 -9 -47 -32 -67 -40 -38 -81 -39 -44 -2 19 20 19 64 -1 92 -8 12 -13 26
-10 31 3 5 -1 12 -10 15 -10 4 -13 2 -8 -7 6 -9 3 -8 -8 1 -15 12 -17 6 -23
-55 -3 -37 -7 -75 -8 -83 -1 -8 9 -36 21 -61 l23 -46 -30 -34 c-16 -19 -41
-47 -55 -64 l-26 -30 -32 36 c-18 20 -43 49 -56 64 l-23 28 27 53 c25 50 27
59 21 137 l-7 83 29 17 c16 9 36 17 44 17 9 0 18 4 21 8 5 9 -35 11 -44 2 -3
-3 -14 -10 -24 -16 -11 -6 -24 -19 -30 -30 -6 -10 -23 -34 -38 -52 -31 -36
-37 -82 -13 -102 28 -23 0 -34 -34 -14 -35 21 -56 72 -46 112 6 25 41 78 72
111 11 10 11 16 2 27 -9 11 -8 14 2 15 8 1 3 4 -11 8 -16 5 -24 13 -22 24 2
10 -4 17 -13 17 -8 0 -16 7 -16 15 -3 28 -4 33 -11 41 -5 4 -8 2 -8 -4 0 -23
20 -61 50 -96 40 -45 25 -48 -18 -3 -54 55 -66 126 -32 192 l20 38 -46 49
c-84 90 -104 175 -61 261 l24 46 -66 6 c-276 27 -406 118 -419 294 -4 64 -3
68 18 74 12 3 19 10 15 16 -3 6 1 14 9 17 9 3 13 10 10 16 -3 5 -12 4 -22 -4
-13 -12 -14 -10 -4 9 15 28 48 38 69 21 15 -12 15 -10 0 13 -22 32 -10 45 17
20 21 -20 21 -20 22 10 1 20 -3 28 -11 25 -15 -6 -27 3 -48 37 -10 15 -24 27
-32 27 -8 0 -37 5 -66 11 -64 14 -121 63 -144 124 -15 38 -25 47 -91 79 -45
23 -84 50 -100 71 -39 51 -64 128 -64 193 l1 57 21 -43 c19 -39 76 -97 95 -97
5 0 20 -8 34 -18 31 -21 140 -43 263 -52 88 -7 89 -7 83 14 -3 11 -1 21 4 21
5 0 9 -4 9 -10 0 -5 14 -17 31 -26 27 -13 41 -14 96 -4 98 17 166 0 221 -55
37 -38 42 -47 42 -89 0 -57 -35 -101 -76 -93 -29 5 -30 -4 -5 -60 24 -53 55
-73 125 -80 44 -5 61 -2 90 15 28 16 37 18 45 8 6 -7 7 -17 3 -21 -4 -5 -1 -5
5 -1 10 5 9 13 -4 33 -12 18 -14 30 -7 41 18 30 8 66 -28 102 -30 30 -36 44
-42 95 -4 33 -10 68 -13 79 -4 14 -2 16 8 11 8 -5 1 6 -14 22 -53 56 -46 122
19 210 13 17 24 42 24 55 1 26 23 61 33 51 4 -3 7 -15 7 -25 0 -10 4 -18 10
-18 5 0 16 -12 24 -27 11 -21 15 -23 16 -10 0 10 -9 30 -21 46 -28 38 -30 61
-7 98 14 24 18 42 13 65 l-6 33 26 -28 c21 -24 24 -34 19 -68 -5 -30 -2 -44
11 -59 24 -26 39 -26 25 1 -18 33 -15 74 9 107 25 36 26 44 6 83 -14 27 -14
31 2 53 21 28 38 24 22 -5z"/>
<path d="M2196 3103 c-6 -14 -5 -15 5 -6 7 7 10 15 7 18 -3 3 -9 -2 -12 -12z"/>
<path d="M2491 3054 c0 -11 3 -14 6 -6 3 7 2 16 -1 19 -3 4 -6 -2 -5 -13z"/>
<path d="M2225 2799 c-4 -6 -5 -12 -2 -15 2 -3 7 2 10 11 7 17 1 20 -8 4z"/>
<path d="M1704 2728 c-4 -6 -3 -8 4 -4 6 3 23 2 39 -4 26 -9 27 -9 9 5 -24 18
-42 19 -52 3z"/>
<path d="M2864 2729 c-12 -4 -26 -14 -30 -21 -6 -10 -5 -11 7 -1 8 6 28 13 44
15 19 2 25 5 15 9 -8 4 -25 3 -36 -2z"/>
<path d="M1788 2543 c6 -2 18 -2 25 0 6 3 1 5 -13 5 -14 0 -19 -2 -12 -5z"/>
<path d="M2910 2495 c6 -8 9 -20 5 -27 -4 -7 0 -4 9 6 17 21 13 36 -11 36 -12
0 -13 -3 -3 -15z"/>
<path d="M2951 2462 c-10 -25 -10 -25 3 -8 9 11 22 16 31 13 21 -9 19 0 -4 12
-15 8 -20 5 -30 -17z"/>
<path d="M3013 2429 c14 -8 16 -14 6 -25 -9 -11 -7 -14 10 -14 11 0 21 4 21 8
0 12 -34 42 -46 42 -5 0 -1 -5 9 -11z"/>
<path d="M1724 2395 c-62 -26 -50 -134 20 -176 37 -23 112 -45 181 -54 28 -4
61 -9 75 -11 14 -2 64 -7 111 -10 l86 -7 -4 54 c-2 30 -6 74 -9 98 l-6 43 -23
-22 c-15 -14 -42 -24 -70 -28 -45 -5 -47 -4 -36 16 18 34 13 44 -11 22 -30
-28 -95 -30 -158 -3 l-35 14 35 16 35 16 -66 11 c-37 6 -73 16 -80 23 -11 9
-21 8 -45 -2z"/>
<path d="M2068 2403 c6 -2 18 -2 25 0 6 3 1 5 -13 5 -14 0 -19 -2 -12 -5z"/>
<path d="M2836 2378 c-10 -6 -48 -10 -84 -9 -59 1 -64 -1 -46 -14 10 -8 25
-15 32 -15 31 0 7 -21 -43 -35 -44 -13 -62 -14 -90 -5 -19 6 -37 16 -40 21 -4
5 -11 9 -17 9 -6 0 -3 -11 6 -25 l16 -25 -37 0 c-21 0 -53 9 -72 21 -18 11
-34 19 -36 17 -1 -2 -5 -42 -7 -89 -3 -59 -1 -86 6 -84 6 2 72 6 146 9 227 9
301 32 334 100 17 36 21 83 8 103 -13 20 -56 32 -76 21z"/>
<path d="M1938 2373 c7 -3 16 -2 19 1 4 3 -2 6 -13 5 -11 0 -14 -3 -6 -6z"/>
<path d="M1532 2309 c-3 -81 64 -181 156 -228 18 -10 22 -9 22 4 0 8 -4 15
-10 15 -5 0 -10 6 -10 14 0 9 -7 12 -20 9 -12 -3 -20 0 -20 7 0 7 -7 10 -15 6
-8 -3 -15 -1 -15 5 0 6 -8 23 -18 37 -10 15 -18 36 -18 47 1 11 -9 30 -21 41
-12 12 -23 37 -26 55 -3 29 -4 27 -5 -12z"/>
<path d="M1615 2189 c-4 -6 -5 -12 -2 -15 2 -3 7 2 10 11 7 17 1 20 -8 4z"/>
<path d="M2988 2143 c4 -21 2 -25 -12 -20 -9 4 -16 2 -16 -3 0 -6 -8 -10 -17
-10 -10 0 -23 -11 -29 -25 -12 -24 -12 -24 16 -10 38 20 90 64 90 78 0 5 -3 7
-7 4 -3 -4 -12 -2 -18 3 -9 8 -11 4 -7 -17z"/>
<path d="M1725 2080 c-9 -14 -6 -17 28 -25 21 -6 27 -4 27 10 0 12 -5 15 -17
11 -9 -4 -20 -2 -23 5 -6 8 -9 8 -15 -1z"/>
<path d="M2881 2073 c-1 -7 -10 -13 -21 -13 -11 0 -20 -5 -20 -11 0 -6 9 -8
23 -3 29 8 30 10 24 26 -4 10 -6 10 -6 1z"/>
<path d="M1835 2035 c28 -7 51 -12 53 -10 6 5 -61 25 -82 24 -12 0 2 -6 29
-14z"/>
<path d="M2404 2042 c4 -8 0 -12 -11 -12 -11 0 -24 -5 -30 -11 -8 -8 -17 -8
-33 1 -19 10 -21 9 -18 -7 2 -10 10 -17 18 -15 7 2 42 6 77 9 34 3 63 10 63
14 0 5 -7 10 -15 10 -24 2 -29 4 -44 13 -10 6 -12 5 -7 -2z"/>
<path d="M2578 2040 c-2 -7 -22 -13 -45 -14 -23 -1 -45 -5 -49 -9 -4 -4 38 -7
94 -7 63 0 103 4 108 11 10 17 -18 30 -35 16 -16 -13 -53 -10 -62 5 -4 6 -8 6
-11 -2z"/>
<path d="M1940 2030 l-35 -7 35 -2 c19 -1 44 -3 55 -5 11 -2 14 -1 8 1 -7 3
-13 9 -13 14 0 5 -3 8 -7 8 -5 -1 -24 -5 -43 -9z"/>
<path d="M2705 2020 c3 -5 18 -10 32 -10 32 0 28 5 -10 14 -19 4 -26 3 -22 -4z"/>
<path d="M2264 1995 c-10 -8 -30 -15 -44 -15 -32 0 -56 -15 -41 -24 15 -10
111 26 111 41 0 16 -2 16 -26 -2z"/>
<path d="M2360 1977 c0 -9 7 -20 17 -25 13 -8 16 -24 14 -83 -1 -41 2 -85 8
-99 7 -18 10 -20 10 -7 1 10 9 17 21 17 11 0 20 6 20 14 0 8 5 16 11 18 7 2 9
13 5 26 -4 12 -12 20 -17 17 -5 -4 -9 1 -9 10 0 9 4 13 10 10 6 -3 7 1 4 9 -3
9 -1 16 5 16 7 0 16 -10 21 -22 5 -13 9 -17 9 -10 2 25 -32 63 -68 78 -20 8
-42 22 -48 31 -12 16 -13 16 -13 0z m95 -57 c11 -18 -26 -23 -43 -6 -15 15
-14 16 10 16 15 0 30 -5 33 -10z m-19 -108 c-17 -16 -18 -16 -5 5 7 12 15 20
18 17 3 -2 -3 -12 -13 -22z"/>
<path d="M2118 1912 c-11 -15 -11 -15 3 -5 19 15 30 7 22 -15 -5 -14 -3 -14 8
1 13 16 14 12 14 -33 0 -27 -1 -50 -2 -50 -1 0 -9 12 -17 28 -13 25 -15 25
-22 8 -5 -12 -3 -21 4 -24 7 -2 12 -10 12 -17 0 -8 9 -17 20 -20 11 -3 20 -12
21 -18 0 -7 4 -3 9 8 12 28 12 117 0 135 -5 8 -10 12 -10 8 0 -4 -11 -3 -24 2
-19 7 -28 5 -38 -8z"/>
<path d="M2173 1693 c-17 -6 -16 -20 1 -26 8 -3 16 2 19 14 5 19 2 21 -20 12z"/>
<path d="M2115 1648 c-26 -31 -34 -46 -50 -98 -7 -22 -6 -23 9 -11 9 7 16 22
16 32 0 11 5 19 10 19 6 0 9 3 9 8 -3 19 3 33 23 52 12 11 19 22 16 25 -3 3
-18 -9 -33 -27z"/>
<path d="M2490 1590 c0 -5 5 -10 10 -10 6 0 10 5 10 10 0 6 -4 10 -10 10 -5 0
-10 -4 -10 -10z"/>
<path d="M2370 1524 c0 -40 2 -45 15 -34 16 13 19 38 9 64 -12 31 -24 15 -24
-30z"/>
<path d="M2196 1547 c-5 -9 -5 -29 0 -45 7 -25 8 -26 11 -4 3 12 3 32 0 45 -3
19 -4 20 -11 4z"/>
<path d="M2456 1425 c-3 -8 -2 -15 3 -15 5 0 14 7 21 15 10 12 10 15 -3 15 -8
0 -17 -7 -21 -15z"/>
<path d="M2354 1392 c3 -6 0 -13 -6 -15 -7 -3 -2 -6 10 -6 25 -1 26 19 2 27
-7 3 -10 0 -6 -6z"/>
<path d="M2356 1318 c3 -4 12 -8 20 -8 8 0 14 4 14 8 0 4 -9 8 -19 8 -11 0
-17 -4 -15 -8z"/>
<path d="M813 3580 c-4 -14 -14 -20 -33 -20 -15 0 -35 -9 -45 -20 -43 -48 28
-108 76 -65 23 21 54 100 44 114 -11 18 -37 12 -42 -9z m-23 -70 c0 -5 -7 -10
-15 -10 -8 0 -15 5 -15 10 0 6 7 10 15 10 8 0 15 -4 15 -10z"/>
<path d="M937 3471 c-4 -15 -13 -21 -34 -21 -36 0 -53 -16 -53 -51 0 -34 21
-51 57 -47 21 2 33 13 50 43 31 58 33 89 7 93 -15 2 -23 -3 -27 -17z m-27 -71
c0 -5 -4 -10 -10 -10 -5 0 -10 5 -10 10 0 6 5 10 10 10 6 0 10 -4 10 -10z"/>
<path d="M3830 3482 c0 -18 33 -52 51 -52 11 0 31 -12 44 -26 33 -36 34 -92 2
-122 -32 -30 -40 -27 -22 8 29 56 9 110 -47 129 -93 33 -192 -75 -128 -139 45
-45 107 -9 97 55 -5 30 -3 36 11 33 10 -2 18 -14 20 -30 3 -21 -7 -39 -42 -76
l-45 -48 22 -28 22 -28 76 35 c76 35 119 74 119 109 0 17 5 19 32 13 l31 -7
-21 33 c-11 19 -30 35 -41 37 -10 2 -30 20 -44 41 -14 21 -41 45 -60 54 -37
18 -77 22 -77 9z m-42 -159 c2 -8 -5 -13 -17 -13 -12 0 -21 6 -21 16 0 18 31
15 38 -3z"/>
<path d="M630 3402 c-54 -76 -60 -88 -60 -120 0 -23 10 -43 35 -70 l35 -37 24
29 c13 16 22 35 19 42 -3 7 5 27 17 43 l21 31 40 -27 c40 -26 55 -52 20 -33
-29 15 -49 12 -71 -10 -37 -37 -14 -100 37 -100 46 0 103 71 103 129 0 26 -9
36 -57 69 -32 21 -63 42 -70 45 -7 5 -25 -15 -49 -53 -25 -40 -41 -57 -47 -51
-7 7 2 26 26 57 42 54 44 65 19 80 -15 10 -22 6 -42 -24z m134 -180 c2 -4 1
-14 -4 -22 -7 -11 -12 -12 -21 -3 -6 6 -8 16 -5 22 8 13 23 14 30 3z"/>
<path d="M3687 3194 c-4 -4 -7 -18 -7 -30 0 -13 -9 -29 -21 -37 -20 -14 -20
-16 -4 -41 l17 -26 41 22 c52 30 64 49 51 85 -7 21 -17 29 -40 31 -16 2 -33 0
-37 -4z m45 -39 c0 -5 -5 -11 -11 -13 -6 -2 -11 4 -11 13 0 9 5 15 11 13 6 -2
11 -8 11 -13z"/>
<path d="M4026 3174 c-22 -21 -20 -57 4 -79 30 -27 18 -29 -28 -5 l-41 21 -45
-20 c-25 -11 -46 -24 -46 -29 0 -17 79 -182 87 -182 4 0 61 23 125 51 125 55
122 51 93 106 -1 2 -48 -18 -104 -43 -56 -25 -104 -44 -106 -42 -3 2 -11 21
-20 41 -14 34 -14 37 4 47 14 7 31 5 63 -7 27 -10 55 -13 72 -9 33 8 62 62 52
100 -14 57 -75 85 -110 50z m60 -35 c10 -17 -13 -36 -27 -22 -12 12 -4 33 11
33 5 0 12 -5 16 -11z"/>
<path d="M485 3128 c-37 -29 -55 -76 -55 -146 0 -53 2 -60 25 -70 21 -10 27
-9 31 2 4 11 21 7 81 -20 42 -19 77 -33 78 -32 8 11 26 50 23 53 -10 10 -169
75 -183 75 -14 0 -16 6 -11 32 4 18 15 42 26 53 19 18 22 19 62 3 24 -9 69
-27 100 -42 l56 -25 11 30 c9 26 8 31 -12 38 -12 5 -53 23 -90 40 -82 37 -105
38 -142 9z"/>
<path d="M436 2588 c-29 -39 -42 -83 -27 -92 6 -4 11 1 12 11 0 15 2 14 11 -4
22 -46 36 -22 36 65 0 28 -2 52 -4 52 -1 0 -14 -15 -28 -32z"/>
<path d="M4144 2537 c1 -62 13 -89 29 -62 7 14 11 15 18 4 6 -11 9 -10 14 4 7
16 -22 74 -48 96 -11 8 -13 0 -13 -42z"/>
<path d="M371 2482 c-13 -24 -14 -59 -3 -66 13 -8 36 64 24 76 -7 7 -14 3 -21
-10z"/>
<path d="M466 2481 c-3 -5 0 -21 8 -35 11 -22 15 -24 20 -11 11 28 7 55 -8 55
-8 0 -17 -4 -20 -9z"/>
<path d="M407 2451 c-19 -33 -15 -39 26 -39 37 1 41 12 15 43 l-23 26 -18 -30z"/>
<path d="M4215 2469 c-6 -17 18 -72 28 -62 11 11 8 38 -7 59 -13 16 -15 17
-21 3z"/>
<path d="M4110 2456 c0 -8 3 -22 6 -31 6 -14 8 -13 21 5 8 11 11 25 8 30 -9
15 -35 12 -35 -4z"/>
<path d="M4166 2442 c-24 -28 -20 -42 14 -42 32 0 38 14 16 42 -12 17 -14 17
-30 0z"/>
<path d="M477 2403 c-11 -10 -8 -41 4 -49 6 -3 17 0 25 8 13 12 12 17 -4 31
-10 9 -22 14 -25 10z"/>
<path d="M363 2381 c-10 -16 -9 -20 3 -25 27 -11 35 -7 32 16 -4 28 -20 33
-35 9z"/>
<path d="M414 2385 c-4 -9 -2 -21 4 -27 15 -15 44 -1 40 19 -4 23 -36 29 -44
8z"/>
<path d="M4106 2381 c-17 -18 -17 -20 2 -30 22 -12 32 -6 32 20 0 27 -15 31
-34 10z"/>
<path d="M4154 2375 c-8 -19 12 -36 33 -28 19 7 12 37 -10 41 -9 2 -20 -4 -23
-13z"/>
<path d="M4217 2384 c-4 -4 -7 -16 -7 -26 0 -20 25 -25 36 -7 8 13 -19 43 -29
33z"/>
<path d="M400 2327 c0 -8 9 -22 20 -32 20 -18 21 -18 35 1 24 31 18 44 -20 44
-23 0 -35 -5 -35 -13z"/>
<path d="M482 2327 c-7 -43 -5 -71 4 -74 6 -2 11 2 12 9 1 7 4 25 7 39 5 18 2
28 -7 32 -8 3 -15 0 -16 -6z"/>
<path d="M4144 2328 c-5 -8 17 -48 27 -48 12 0 42 40 36 47 -10 9 -57 10 -63
1z"/>
<path d="M370 2311 c0 -10 6 -24 14 -31 8 -6 17 -21 19 -33 3 -20 4 -20 12 -4
5 12 1 30 -11 53 -21 38 -34 44 -34 15z"/>
<path d="M4105 2320 c-3 -5 -1 -19 5 -30 6 -11 8 -25 5 -30 -3 -6 -2 -10 4
-10 17 0 23 19 16 50 -7 30 -19 38 -30 20z"/>
<path d="M4220 2319 c0 -7 -7 -21 -17 -31 -13 -14 -14 -23 -5 -40 11 -23 11
-23 11 -2 1 12 8 27 16 34 17 14 20 36 5 45 -5 3 -10 1 -10 -6z"/>
<path d="M450 2251 c0 -7 -4 -9 -10 -6 -15 9 -12 -52 4 -83 8 -15 26 -38 41
-52 26 -23 27 -23 16 -3 -6 12 -11 44 -11 71 0 36 -5 54 -20 67 -12 11 -20 13
-20 6z"/>
<path d="M4136 2241 c-9 -10 -16 -35 -16 -60 0 -23 -5 -52 -11 -64 -10 -18 -6
-17 19 7 17 16 38 44 47 63 16 33 16 36 -3 53 -19 18 -21 18 -36 1z"/>
<path d="M488 1864 c-93 -30 -105 -37 -101 -54 3 -11 7 -20 8 -20 2 0 33 9 70
21 37 11 69 18 72 16 2 -3 -23 -21 -56 -42 -67 -40 -74 -47 -66 -67 5 -11 24
-13 90 -10 47 3 85 2 85 -1 0 -4 -34 -16 -75 -28 -55 -16 -75 -27 -75 -39 0
-9 2 -19 5 -22 5 -4 119 28 242 67 9 3 10 12 1 35 l-11 32 -88 -4 c-49 -1 -89
-2 -89 -1 0 1 34 23 75 48 41 26 75 49 75 50 0 2 -4 15 -10 29 -12 33 -20 32
-152 -10z"/>
<path d="M3966 1874 c-8 -22 -9 -21 19 -28 70 -18 74 -22 62 -61 -10 -34 -13
-37 -41 -31 -66 12 -71 12 -74 -10 -3 -18 10 -24 119 -54 100 -27 123 -30 130
-19 15 23 11 27 -45 43 l-54 16 10 40 c12 46 9 45 71 26 25 -7 48 -11 51 -8
13 12 5 41 -11 46 -85 25 -205 56 -216 56 -8 0 -18 -7 -21 -16z"/>
<path d="M3883 1621 c-29 -69 -30 -77 -15 -88 23 -18 26 -17 39 17 l11 29 97
-41 c80 -34 98 -39 106 -27 5 8 7 18 6 23 -2 5 -43 25 -92 46 -91 37 -97 44
-84 88 2 8 -5 18 -16 22 -19 7 -24 -1 -52 -69z"/>
<path d="M601 1598 c-63 -27 -117 -51 -120 -53 -2 -3 0 -13 5 -24 8 -18 15
-16 123 29 62 27 116 51 119 54 3 3 1 14 -4 24 -8 17 -17 15 -123 -30z"/>
<path d="M633 1499 c-103 -55 -112 -62 -102 -80 10 -19 12 -19 76 15 37 20 68
34 70 32 2 -2 -17 -34 -43 -70 -36 -52 -45 -72 -40 -92 l7 -25 112 59 c61 33
113 64 114 68 1 5 -1 15 -6 23 -7 11 -22 7 -76 -23 -37 -20 -69 -35 -71 -34
-2 2 20 36 47 76 42 60 48 75 39 92 -6 11 -12 20 -13 20 -1 0 -53 -28 -114
-61z"/>
<path d="M3780 1415 c-7 -9 -11 -17 -9 -19 8 -8 206 -115 217 -118 19 -5 83
114 70 129 -17 21 -35 15 -48 -17 -23 -55 -32 -56 -123 -6 -46 25 -86 46 -89
46 -3 0 -11 -7 -18 -15z"/>
<path d="M750 1294 c-94 -63 -116 -89 -87 -100 12 -4 170 90 210 126 10 9 -2
40 -17 39 -6 0 -54 -29 -106 -65z"/>
<path d="M3702 1298 c-20 -20 -15 -31 54 -119 36 -46 72 -93 80 -104 14 -19
16 -19 29 -2 11 16 11 22 -2 46 -15 25 -15 29 2 55 16 24 23 27 51 21 26 -4
35 -2 43 13 9 16 -2 22 -107 56 -64 22 -122 40 -127 43 -6 2 -16 -2 -23 -9z
m102 -63 c32 -14 35 -18 25 -36 -10 -20 -11 -20 -31 -2 -20 17 -43 53 -35 53
3 0 21 -7 41 -15z"/>
<path d="M862 1260 c-34 -14 -47 -52 -34 -99 23 -76 4 -114 -38 -76 -22 20
-26 45 -8 63 8 8 8 15 -2 27 -12 14 -15 14 -31 -1 -48 -43 -4 -144 61 -144 73
0 100 45 75 121 -18 53 -14 69 15 69 21 0 37 -40 25 -60 -4 -6 -1 -18 6 -26
10 -13 14 -12 30 2 29 26 24 71 -10 105 -30 30 -50 34 -89 19z"/>
<path d="M3574 1136 c-25 -30 -47 -56 -48 -58 0 -2 42 -42 95 -90 l96 -87 53
61 c49 56 52 61 36 76 -16 16 -20 14 -56 -24 -36 -39 -40 -41 -59 -27 -28 19
-26 31 11 70 30 31 31 34 13 47 -16 12 -21 9 -48 -20 -33 -39 -36 -39 -63 -20
-18 14 -18 16 20 55 33 34 37 42 26 56 -19 23 -25 20 -76 -39z"/>
<path d="M1002 1128 c-9 -9 -7 -17 10 -35 l22 -24 -78 -78 c-69 -69 -75 -79
-61 -91 14 -12 25 -4 88 58 40 40 77 72 82 72 6 0 16 -9 23 -21 13 -20 14 -20
33 -3 19 17 19 19 -38 76 -31 32 -60 58 -63 58 -3 0 -11 -5 -18 -12z"/>
<path d="M3470 1025 c-11 -13 -9 -20 13 -43 33 -34 33 -43 4 -70 -30 -28 -32
-28 -66 10 -19 22 -33 29 -45 25 -26 -10 -17 -26 71 -126 72 -82 79 -88 95
-74 16 15 15 18 -18 56 l-34 41 30 31 30 30 38 -43 c34 -40 39 -42 56 -29 19
14 15 19 -63 108 -46 52 -86 95 -90 97 -5 1 -14 -4 -21 -13z"/>
<path d="M1078 900 c-72 -92 -75 -99 -59 -114 16 -15 20 -13 51 25 l33 41 26
-26 26 -27 -23 -40 c-19 -32 -21 -43 -11 -55 6 -8 14 -14 18 -14 11 0 51 78
51 99 0 14 7 21 18 21 28 0 62 42 62 77 0 25 -10 39 -49 72 -27 23 -53 41 -57
40 -5 0 -44 -44 -86 -99z m139 -20 c-3 -32 -45 -40 -70 -12 -16 18 -16 20 4
45 20 26 21 26 45 9 16 -11 23 -25 21 -42z"/>
<path d="M1306 794 c-5 -67 -12 -96 -33 -131 -21 -37 -24 -47 -12 -54 22 -14
24 -12 53 32 17 25 57 59 103 89 76 49 76 49 50 61 -23 11 -31 9 -67 -15 -22
-14 -42 -26 -46 -26 -3 0 -2 24 1 54 6 48 5 55 -13 65 -12 6 -23 11 -25 11 -2
0 -7 -39 -11 -86z"/>
<path d="M3109 771 c-35 -35 -38 -76 -10 -136 39 -87 121 -120 177 -72 21 18
27 32 27 64 0 51 -9 66 -31 54 -9 -5 -16 -22 -16 -41 -1 -38 -23 -56 -59 -46
-49 12 -87 112 -55 144 15 15 54 16 63 2 4 -7 14 -6 28 1 21 12 21 12 -7 35
-38 33 -80 31 -117 -5z"/>
<path d="M2981 711 c-12 -8 -6 -29 35 -125 27 -64 54 -116 59 -116 37 0 35 18
-16 133 -29 64 -55 117 -58 117 -3 0 -12 -4 -20 -9z"/>
<path d="M1643 671 c-42 -26 -73 -88 -73 -146 0 -38 5 -52 29 -76 52 -52 123
-35 160 39 27 55 33 99 17 135 -25 62 -80 81 -133 48z m82 -51 c21 -23 16 -77
-10 -117 -20 -29 -37 -37 -69 -29 -46 11 -45 82 1 136 29 35 53 38 78 10z"/>
<path d="M2818 653 c-10 -2 -18 -8 -18 -11 0 -12 70 -217 79 -231 8 -12 20
-10 75 9 65 23 74 32 58 58 -7 10 -17 9 -52 -3 -24 -8 -47 -12 -50 -8 -4 5
-22 50 -40 101 -18 50 -33 91 -34 91 0 -1 -9 -3 -18 -6z"/>
<path d="M1850 625 c0 -3 -11 -56 -25 -117 -31 -136 -31 -140 -3 -136 18 2 24
12 31 48 5 25 10 46 12 48 1 1 21 -1 43 -6 33 -8 42 -7 46 5 11 27 6 31 -35
38 -36 6 -40 10 -37 33 3 29 24 34 79 19 23 -6 27 -3 31 18 5 22 1 25 -46 35
-28 6 -61 13 -73 16 -13 4 -23 3 -23 -1z"/>
<path d="M2643 607 c-23 -7 -44 -15 -47 -18 -5 -5 41 -234 49 -247 5 -6 112
21 133 34 30 19 31 85 2 114 -14 14 -18 28 -14 44 6 24 -10 65 -30 78 -15 10
-42 8 -93 -5z m75 -64 c3 -17 -3 -26 -23 -33 -32 -12 -41 -8 -47 25 -6 27 5
35 42 32 18 -1 26 -9 28 -24z m37 -94 c8 -25 -1 -37 -43 -48 -29 -9 -31 -7
-37 20 -9 38 0 49 40 49 25 0 35 -5 40 -21z"/>
<path d="M2512 583 c-10 -4 -12 -26 -6 -99 7 -99 0 -124 -36 -124 -30 0 -40
24 -51 116 -5 48 -11 90 -13 92 -3 2 -13 2 -23 0 -18 -3 -18 -8 -7 -107 10
-95 14 -107 39 -129 37 -31 89 -25 124 15 22 25 23 32 17 117 -10 126 -12 132
-44 119z"/>
<path d="M2160 440 c0 -122 1 -130 19 -130 17 0 20 8 23 48 l3 47 48 6 c27 3
53 12 58 20 26 39 23 94 -7 123 -11 11 -35 16 -80 16 l-64 0 0 -130z m108 81
c8 -5 12 -21 10 -37 -2 -25 -8 -29 -35 -32 -32 -3 -33 -2 -33 37 0 36 3 41 23
41 12 0 28 -4 35 -9z"/>
<path d="M3301 4366 c2 -2 15 -9 29 -15 24 -11 24 -11 6 3 -16 13 -49 24 -35
12z"/>
<path d="M3730 4096 c0 -2 8 -10 18 -17 15 -13 16 -12 3 4 -13 16 -21 21 -21
13z"/>
<path d="M799 4043 c-13 -16 -12 -17 4 -4 9 7 17 15 17 17 0 8 -8 3 -21 -13z"/>
<path d="M3805 4030 c10 -11 20 -20 23 -20 3 0 -3 9 -13 20 -10 11 -20 20 -23
20 -3 0 3 -9 13 -20z"/>
<path d="M674 3928 l-29 -33 33 29 c17 17 32 31 32 33 0 8 -8 1 -36 -29z"/>
<path d="M3915 3930 c10 -11 20 -20 23 -20 3 0 -3 9 -13 20 -10 11 -20 20 -23
20 -3 0 3 -9 13 -20z"/>
<path d="M559 3803 c-13 -16 -12 -17 4 -4 9 7 17 15 17 17 0 8 -8 3 -21 -13z"/>
<path d="M4035 3800 c10 -11 20 -20 23 -20 3 0 -3 9 -13 20 -10 11 -20 20 -23
20 -3 0 3 -9 13 -20z"/>
<path d="M4070 3756 c0 -2 8 -10 18 -17 15 -13 16 -12 3 4 -13 16 -21 21 -21
13z"/>
<path d="M4119 913 c-13 -16 -12 -17 4 -4 16 13 21 21 13 21 -2 0 -10 -8 -17
-17z"/>
<path d="M4044 818 l-19 -23 23 19 c21 18 27 26 19 26 -2 0 -12 -10 -23 -22z"/>
<path d="M555 810 c10 -11 20 -20 23 -20 3 0 -3 9 -13 20 -10 11 -20 20 -23
20 -3 0 3 -9 13 -20z"/>
<path d="M670 685 c35 -36 67 -65 69 -65 3 0 -24 29 -59 65 -35 36 -67 65 -69
65 -3 0 24 -29 59 -65z"/>
<path d="M3915 678 l-60 -63 63 60 c58 55 67 65 59 65 -1 0 -29 -28 -62 -62z"/>
<path d="M815 550 c10 -11 20 -20 23 -20 3 0 -3 9 -13 20 -10 11 -20 20 -23
20 -3 0 3 -9 13 -20z"/>
<path d="M3779 553 c-13 -16 -12 -17 4 -4 16 13 21 21 13 21 -2 0 -10 -8 -17
-17z"/>
<path d="M3724 508 l-19 -23 23 19 c12 11 22 21 22 23 0 8 -8 2 -26 -19z"/>
</g>
</svg>
